<svg width="50" height="50" viewBox="0 0 50 50" fill="none" xmlns="http://www.w3.org/2000/svg">
<path d="M25 33.3334L27.9166 30.4167L24.5833 27.0834H33.3333V22.9167H24.5833L27.9166 19.5834L25 16.6667L16.6666 25L25 33.3334ZM25 45.8334C22.118 45.8334 19.4097 45.2861 16.875 44.1917C14.3402 43.0986 12.1354 41.6146 10.2604 39.7396C8.38538 37.8646 6.90135 35.6597 5.80829 33.125C4.71385 30.5903 4.16663 27.882 4.16663 25C4.16663 22.1181 4.71385 19.4097 5.80829 16.875C6.90135 14.3403 8.38538 12.1354 10.2604 10.2604C12.1354 8.38544 14.3402 6.90071 16.875 5.80627C19.4097 4.71321 22.118 4.16669 25 4.16669C27.8819 4.16669 30.5902 4.71321 33.125 5.80627C35.6597 6.90071 37.8645 8.38544 39.7395 10.2604C41.6145 12.1354 43.0986 14.3403 44.1916 16.875C45.2861 19.4097 45.8333 22.1181 45.8333 25C45.8333 27.882 45.2861 30.5903 44.1916 33.125C43.0986 35.6597 41.6145 37.8646 39.7395 39.7396C37.8645 41.6146 35.6597 43.0986 33.125 44.1917C30.5902 45.2861 27.8819 45.8334 25 45.8334ZM25 41.6667C29.6527 41.6667 33.5937 40.0521 36.8229 36.8229C40.052 33.5938 41.6666 29.6528 41.6666 25C41.6666 20.3472 40.052 16.4063 36.8229 13.1771C33.5937 9.94794 29.6527 8.33335 25 8.33335C20.3472 8.33335 16.4062 9.94794 13.177 13.1771C9.94788 16.4063 8.33329 20.3472 8.33329 25C8.33329 29.6528 9.94788 33.5938 13.177 36.8229C16.4062 40.0521 20.3472 41.6667 25 41.6667Z" fill="#863A20"/>
</svg>
