 <svg width="50" height="50" viewBox="0 0 50 50" fill="none" xmlns="http://www.w3.org/2000/svg">
<path d="M25.0001 33.3334L33.3334 25L25.0001 16.6667L22.0834 19.5834L25.4167 22.9167H16.6667V27.0834H25.4167L22.0834 30.4167L25.0001 33.3334ZM25.0001 45.8334C22.1181 45.8334 19.4098 45.2861 16.8751 44.1917C14.3404 43.0986 12.1355 41.6146 10.2605 39.7396C8.3855 37.8646 6.90147 35.6597 5.80842 33.125C4.71397 30.5903 4.16675 27.882 4.16675 25C4.16675 22.1181 4.71397 19.4097 5.80842 16.875C6.90147 14.3403 8.3855 12.1354 10.2605 10.2604C12.1355 8.38544 14.3404 6.90071 16.8751 5.80627C19.4098 4.71321 22.1181 4.16669 25.0001 4.16669C27.882 4.16669 30.5904 4.71321 33.1251 5.80627C35.6598 6.90071 37.8647 8.38544 39.7397 10.2604C41.6147 12.1354 43.0987 14.3403 44.1917 16.875C45.2862 19.4097 45.8334 22.1181 45.8334 25C45.8334 27.882 45.2862 30.5903 44.1917 33.125C43.0987 35.6597 41.6147 37.8646 39.7397 39.7396C37.8647 41.6146 35.6598 43.0986 33.1251 44.1917C30.5904 45.2861 27.882 45.8334 25.0001 45.8334Z" fill="#863A20"/>
</svg>
