<svg width="52" height="52" viewBox="0 0 52 52" fill="none" xmlns="http://www.w3.org/2000/svg">
<path d="M10.9185 36.0865C10.4556 36.0865 10.0796 36.4626 10.0796 36.9255V48.6705C10.0796 49.1334 10.4556 49.5094 10.9185 49.5094H16.791V50.3484C16.791 50.8113 17.1671 51.1873 17.63 51.1873H34.4086C34.8715 51.1873 35.2475 50.8113 35.2475 50.3484V49.5094H41.12C41.5829 49.5094 41.9589 49.1334 41.9589 48.6705V36.9255C41.9589 36.4626 41.5829 36.0865 41.12 36.0865H35.2475V25.1804C35.2475 24.7175 34.8715 24.3415 34.4086 24.3415H32.7307V21.8247C32.7307 20.8993 31.9783 20.1469 31.0528 20.1469H26.8582V17.6301H25.1803V20.1469H20.9857C20.0602 20.1469 19.3078 20.8993 19.3078 21.8247V24.3415H17.63C17.1671 24.3415 16.791 24.7175 16.791 25.1804V36.0865H10.9185ZM40.2811 37.7644V47.8316H35.2475V37.7644H40.2811ZM27.6971 49.5094H24.3414V46.9926H27.6971V49.5094ZM20.9857 21.8247H31.0528V24.3415H20.9857V21.8247ZM18.4689 26.0194H33.5696V49.5094H29.375V46.1537C29.375 45.6908 28.999 45.3148 28.5361 45.3148H23.5025C23.0396 45.3148 22.6635 45.6908 22.6635 46.1537V49.5094H18.4689V26.0194ZM11.7575 47.8316V37.7644H16.791V47.8316H11.7575Z" fill="#863A20" stroke="#863A20" stroke-width="0.1"/>
<path d="M20.9858 32.7308H31.053V34.4086H20.9858V32.7308Z" fill="#863A20" stroke="#863A20" stroke-width="0.1"/>
<path d="M20.9858 28.5361H31.053V30.214H20.9858V28.5361Z" fill="#863A20" stroke="#863A20" stroke-width="0.1"/>
<path d="M20.9858 36.9254H31.053V38.6033H20.9858V36.9254Z" fill="#863A20" stroke="#863A20" stroke-width="0.1"/>
<path d="M20.9858 41.1201H31.053V42.798H20.9858V41.1201Z" fill="#863A20" stroke="#863A20" stroke-width="0.1"/>
<path d="M36.9258 39.4422H38.6036V41.1201H36.9258V39.4422Z" fill="#863A20" stroke="#863A20" stroke-width="0.1"/>
<path d="M36.9258 42.798H38.6036V44.4758H36.9258V42.798Z" fill="#863A20" stroke="#863A20" stroke-width="0.1"/>
<path d="M13.4355 39.4422H15.1134V41.1201H13.4355V39.4422Z" fill="#863A20" stroke="#863A20" stroke-width="0.1"/>
<path d="M13.4355 42.798H15.1134V44.4758H13.4355V42.798Z" fill="#863A20" stroke="#863A20" stroke-width="0.1"/>
<path d="M26.0196 15.9522C30.1824 15.9522 33.57 12.5646 33.57 8.40181C33.57 4.23899 30.1824 0.85144 26.0196 0.85144C21.8568 0.85144 18.4692 4.23899 18.4692 8.40181C18.4692 12.5646 21.8568 15.9522 26.0196 15.9522ZM22.6849 13.2297C22.7913 11.9395 23.8635 10.9186 25.1807 10.9186H26.8585C28.1757 10.9186 29.248 11.9395 29.3543 13.2297C28.4064 13.8867 27.2578 14.2743 26.0196 14.2743C24.7814 14.2743 23.6327 13.8867 22.6849 13.2297ZM26.0196 9.24075C25.0942 9.24075 24.3418 8.48833 24.3418 7.56288C24.3418 6.63744 25.0942 5.88502 26.0196 5.88502C26.9451 5.88502 27.6975 6.63744 27.6975 7.56288C27.6975 8.48833 26.9451 9.24075 26.0196 9.24075ZM26.0196 2.5293C29.2577 2.5293 31.8921 5.16374 31.8921 8.40181C31.8921 9.70144 31.4625 10.9003 30.7446 11.874C30.3468 10.8891 29.5862 10.0962 28.6289 9.64679C29.0885 9.07227 29.3754 8.35397 29.3754 7.56298C29.3754 5.71244 27.8702 4.20726 26.0196 4.20726C24.1691 4.20726 22.6639 5.71244 22.6639 7.56298C22.6639 8.35397 22.9508 9.07229 23.4107 9.64679C22.4534 10.0966 21.6924 10.8891 21.2951 11.874C20.5767 10.9003 20.1471 9.70144 20.1471 8.40181C20.1471 5.16374 22.7816 2.5293 26.0196 2.5293H26.0196Z" fill="#863A20" stroke="#863A20" stroke-width="0.1"/>
<path d="M43.6368 7.56287C39.474 7.56287 36.0864 10.9504 36.0864 15.1132C36.0864 19.2761 39.474 22.6636 43.6368 22.6636C47.7996 22.6636 51.1872 19.2761 51.1872 15.1132C51.1872 10.9504 47.7996 7.56287 43.6368 7.56287ZM40.3021 19.9416C40.4084 18.6514 41.4807 17.6305 42.7979 17.6305H44.4757C45.7929 17.6305 46.8652 18.6514 46.9715 19.9416C46.0236 20.5986 44.875 20.9862 43.6368 20.9862C42.3986 20.9862 41.2499 20.5986 40.3021 19.9416ZM43.6368 15.9527C42.7114 15.9527 41.9589 15.2002 41.9589 14.2748C41.9589 13.3493 42.7114 12.5969 43.6368 12.5969C44.5622 12.5969 45.3147 13.3493 45.3147 14.2748C45.3147 15.2002 44.5622 15.9527 43.6368 15.9527ZM48.3618 18.5859C47.964 17.601 47.2034 16.8081 46.2461 16.3587C46.7057 15.7842 46.9925 15.0659 46.9925 14.2749C46.9925 12.4243 45.4874 10.9192 43.6368 10.9192C41.7863 10.9192 40.2811 12.4243 40.2811 14.2749C40.2811 15.0659 40.568 15.7842 41.0279 16.3587C40.0706 16.8085 39.3096 17.601 38.9123 18.5859C38.1939 17.6122 37.7643 16.4133 37.7643 15.1137C37.7643 11.8756 40.3987 9.24121 43.6368 9.24121C46.8749 9.24121 49.5093 11.8756 49.5093 15.1137C49.5093 16.4133 49.0798 17.6122 48.3618 18.5859H48.3618Z" fill="#863A20" stroke="#863A20" stroke-width="0.1"/>
<path d="M8.40194 22.6636C12.5648 22.6636 15.9523 19.2761 15.9523 15.1132C15.9523 10.9504 12.5648 7.56287 8.40194 7.56287C4.23912 7.56287 0.851562 10.9504 0.851562 15.1132C0.851562 19.2761 4.23912 22.6636 8.40194 22.6636ZM5.06721 19.9412C5.17358 18.6509 6.24584 17.63 7.56301 17.63H9.24087C10.558 17.63 11.6303 18.6509 11.7367 19.9412C10.7887 20.5981 9.6401 20.9858 8.40194 20.9858C7.16377 20.9858 6.01506 20.5981 5.06721 19.9412ZM8.40194 15.9522C7.4765 15.9522 6.72408 15.1998 6.72408 14.2743C6.72408 13.3489 7.4765 12.5964 8.40194 12.5964C9.32738 12.5964 10.0798 13.3489 10.0798 14.2743C10.0798 15.1998 9.32738 15.9522 8.40194 15.9522ZM8.40194 9.24073C11.64 9.24073 14.2745 11.8752 14.2745 15.1132C14.2745 16.4129 13.8449 17.6117 13.1269 18.5855C12.7292 17.6005 11.9685 16.8076 11.0113 16.3582C11.4708 15.7837 11.7577 15.0654 11.7577 14.2744C11.7577 12.4239 10.2525 10.9187 8.40196 10.9187C6.55142 10.9187 5.04623 12.4239 5.04623 14.2744C5.04623 15.0654 5.33312 15.7837 5.79304 16.3582C4.83575 16.808 4.07471 17.6005 3.6774 18.5855C2.95906 17.6117 2.52945 16.4129 2.52945 15.1132C2.52945 11.8752 5.16389 9.24073 8.40197 9.24073H8.40194Z" fill="#863A20" stroke="#863A20" stroke-width="0.1"/>
<path d="M3.36835 48.635V51.1877H5.04621V48.635C6.17278 48.5117 7.56301 47.9444 7.56301 45.3152C7.56301 42.9729 6.41027 38.6038 4.20728 38.6038C2.0043 38.6038 0.851562 42.9729 0.851562 45.3152C0.851562 47.9444 2.24179 48.5114 3.36835 48.635ZM4.20579 40.2816C4.73312 40.3505 5.88518 42.9167 5.88518 45.3152C5.88518 46.9286 5.4013 46.9931 4.20732 46.9931C3.01335 46.9931 2.52946 46.9286 2.52946 45.3152C2.52946 42.9167 3.68153 40.3506 4.20579 40.2816Z" fill="#863A20" stroke="#863A20" stroke-width="0.1"/>
<path d="M47.8318 38.6033C45.6288 38.6033 44.4761 42.9725 44.4761 45.3148C44.4761 47.9439 45.8663 48.511 46.9929 48.6345V51.1873H48.6707V48.6345C49.7973 48.5113 51.1875 47.9439 51.1875 45.3148C51.1875 42.9725 50.0348 38.6033 47.8318 38.6033ZM47.8318 46.9926C46.6378 46.9926 46.1539 46.9282 46.1539 45.3148C46.1539 42.9163 47.306 40.3501 47.8303 40.2812C48.3576 40.3501 49.5097 42.9163 49.5097 45.3148C49.5097 46.9282 49.0258 46.9926 47.8318 46.9926Z" fill="#863A20" stroke="#863A20" stroke-width="0.1"/>
</svg>
