<svg width="52" height="54" viewBox="0 0 52 54" fill="none" xmlns="http://www.w3.org/2000/svg">
<path d="M33.7444 26.181C33.59 26.181 33.4361 26.1168 33.3254 25.9911L22.6366 13.8139C22.5392 13.7028 22.4903 13.5577 22.4996 13.4103C22.5093 13.2628 22.5768 13.1258 22.6883 13.028L30.75 5.95258C30.9807 5.75096 31.3318 5.77237 31.5359 6.00429L42.2247 18.1815C42.3221 18.2926 42.3709 18.4377 42.3616 18.5851C42.352 18.7326 42.2845 18.8696 42.173 18.9674L34.1113 26.0428C34.0058 26.135 33.8749 26.181 33.7444 26.181ZM23.8414 13.497L33.7953 24.8374L41.0199 18.4968L31.0661 7.15639L23.8414 13.497Z" fill="#863A20"/>
<path d="M35.2369 31.1851C35.2248 31.1851 35.2131 31.1847 35.2005 31.1839C35.0531 31.1742 34.9157 31.1067 34.8183 30.9952L31.6882 27.4284C31.4854 27.1973 31.508 26.8454 31.7399 26.6426L43.0762 16.6932C43.3074 16.492 43.6577 16.5142 43.8621 16.7445L46.9926 20.3109C47.09 20.4224 47.1389 20.567 47.1296 20.7149C47.1199 20.8624 47.0524 20.9994 46.9409 21.0971L35.6036 31.0469C35.5021 31.1362 35.3719 31.1851 35.2369 31.1851ZM32.8927 27.1124L35.2878 29.8421L45.7873 20.6268L43.3914 17.8975L32.8927 27.1124Z" fill="#863A20"/>
<path d="M21.4182 15.4405C21.2639 15.4405 21.1099 15.3762 20.9992 15.2506L17.8687 11.6838C17.7713 11.5727 17.7224 11.4276 17.7317 11.2802C17.7414 11.1327 17.8089 10.9957 17.9204 10.8979L29.2567 0.94857C29.367 0.850793 29.5032 0.801498 29.6603 0.8112C29.8078 0.820897 29.9452 0.888371 30.0426 0.999884L33.1727 4.56668C33.3755 4.79779 33.3529 5.14971 33.121 5.35254L21.7857 15.3023C21.6802 15.3948 21.5487 15.4405 21.4182 15.4405ZM19.0736 11.3678L21.4695 14.0975L31.968 4.88261L29.5729 2.1529L19.0736 11.3678Z" fill="#863A20"/>
<path d="M20.7169 26.8358C20.5626 26.8358 20.4087 26.7715 20.298 26.6467C20.0951 26.4152 20.1178 26.0632 20.3493 25.86L28.0324 19.1162C28.2635 18.915 28.615 18.936 28.8191 19.1676C29.0219 19.3991 28.9993 19.751 28.7678 19.9542L21.0846 26.698C20.9784 26.7901 20.8474 26.8358 20.7169 26.8358Z" fill="#863A20"/>
<path d="M6.23002 44.1216C6.2179 44.1216 6.20619 44.1212 6.19366 44.1204C6.04619 44.1107 5.90922 44.0432 5.81144 43.9317L1.27899 38.7672C1.07616 38.5361 1.09878 38.1842 1.3307 37.9814L15.5011 25.5445C16.3023 24.8419 17.3298 24.4937 18.394 24.5619C19.4583 24.631 20.4316 25.1106 21.1354 25.9123C21.8389 26.7135 22.188 27.741 22.118 28.8052C22.049 29.869 21.5694 30.8427 20.7677 31.5466L6.59733 43.9834C6.49551 44.0727 6.36497 44.1216 6.23002 44.1216ZM2.48376 38.4518L6.28133 42.779L20.0328 30.7083C20.6106 30.2013 20.9564 29.4994 21.0065 28.7318C21.0567 27.9649 20.8054 27.224 20.298 26.6467C19.7909 26.0689 19.0885 25.7226 18.3214 25.6725C17.5509 25.6284 16.8131 25.8741 16.2349 26.3815L2.48376 38.4518Z" fill="#863A20"/>
<path d="M50.3155 53.1638H27.6377C27.3298 53.1638 27.0809 52.9145 27.0809 52.607V46.2136C27.0809 45.9057 27.3302 45.6568 27.6377 45.6568H50.3155C50.6233 45.6568 50.8722 45.9061 50.8722 46.2136V52.607C50.8722 52.9145 50.6233 53.1638 50.3155 53.1638ZM28.1941 52.0498H49.7579V46.7702H28.1941V52.0498Z" fill="#863A20"/>
<path d="M47.8651 46.7704H30.0859C29.778 46.7704 29.5291 46.5211 29.5291 46.2136V39.5102C29.5291 39.2023 29.7784 38.9534 30.0859 38.9534H47.8651C48.173 38.9534 48.4219 39.2027 48.4219 39.5102V46.2136C48.4219 46.5211 48.173 46.7704 47.8651 46.7704ZM30.6434 45.6564H47.3086V40.067L30.6434 40.0666V45.6564Z" fill="#863A20"/>
<path d="M20.298 26.6467C20.4087 26.7715 20.5626 26.8358 20.7169 26.8358C20.8474 26.8358 20.9784 26.7901 21.0846 26.698L28.7678 19.9542C28.9993 19.751 29.0219 19.3991 28.8191 19.1676C28.615 18.936 28.2635 18.915 28.0324 19.1162L20.3493 25.86C20.1178 26.0632 20.0951 26.4152 20.298 26.6467ZM20.298 26.6467C20.8054 27.224 21.0567 27.9649 21.0065 28.7318C20.9564 29.4994 20.6106 30.2013 20.0328 30.7083L6.28133 42.779L2.48376 38.4518L16.2349 26.3815C16.8131 25.8741 17.5509 25.6284 18.3214 25.6725C19.0885 25.7226 19.7909 26.0689 20.298 26.6467ZM33.7444 26.181C33.59 26.181 33.4361 26.1168 33.3254 25.9911L22.6366 13.8139C22.5392 13.7028 22.4903 13.5577 22.4996 13.4103C22.5093 13.2628 22.5768 13.1258 22.6883 13.028L30.75 5.95258C30.9807 5.75096 31.3318 5.77237 31.5359 6.00429L42.2247 18.1815C42.3221 18.2926 42.3709 18.4377 42.3616 18.5852C42.352 18.7326 42.2845 18.8696 42.173 18.9674L34.1113 26.0428C34.0058 26.135 33.8749 26.181 33.7444 26.181ZM23.8414 13.497L33.7953 24.8374L41.0199 18.4968L31.0661 7.15639L23.8414 13.497ZM35.2369 31.1851C35.2248 31.1851 35.2131 31.1847 35.2005 31.1839C35.0531 31.1742 34.9157 31.1067 34.8183 30.9952L31.6882 27.4284C31.4854 27.1973 31.508 26.8454 31.7399 26.6426L43.0762 16.6932C43.3074 16.492 43.6577 16.5142 43.8621 16.7445L46.9926 20.3109C47.09 20.4224 47.1389 20.567 47.1296 20.7149C47.1199 20.8624 47.0524 20.9994 46.9409 21.0971L35.6036 31.0469C35.5021 31.1362 35.3719 31.1851 35.2369 31.1851ZM32.8927 27.1124L35.2878 29.8421L45.7873 20.6268L43.3914 17.8975L32.8927 27.1124ZM21.4182 15.4405C21.2639 15.4405 21.1099 15.3762 20.9992 15.2506L17.8687 11.6838C17.7713 11.5727 17.7224 11.4276 17.7317 11.2802C17.7414 11.1327 17.8089 10.9957 17.9204 10.8979L29.2567 0.94857C29.367 0.850793 29.5032 0.801498 29.6603 0.8112C29.8078 0.820897 29.9452 0.888371 30.0426 0.999884L33.1727 4.56668C33.3755 4.79779 33.3529 5.14971 33.121 5.35254L21.7857 15.3023C21.6802 15.3948 21.5487 15.4405 21.4182 15.4405ZM19.0736 11.3678L21.4695 14.0975L31.968 4.88261L29.5729 2.1529L19.0736 11.3678ZM6.23002 44.1216C6.2179 44.1216 6.20619 44.1212 6.19366 44.1204C6.04619 44.1107 5.90922 44.0432 5.81144 43.9317L1.27899 38.7672C1.07616 38.5361 1.09878 38.1842 1.3307 37.9814L15.5011 25.5445C16.3023 24.8419 17.3298 24.4937 18.394 24.5619C19.4583 24.631 20.4316 25.1106 21.1354 25.9123C21.8389 26.7135 22.188 27.741 22.118 28.8052C22.049 29.869 21.5694 30.8427 20.7677 31.5466L6.59733 43.9834C6.49551 44.0727 6.36497 44.1216 6.23002 44.1216ZM50.3155 53.1638H27.6377C27.3298 53.1638 27.0809 52.9145 27.0809 52.607V46.2136C27.0809 45.9057 27.3302 45.6568 27.6377 45.6568H50.3155C50.6233 45.6568 50.8722 45.9061 50.8722 46.2136V52.607C50.8722 52.9145 50.6233 53.1638 50.3155 53.1638ZM28.1941 52.0498H49.7579V46.7702H28.1941V52.0498ZM47.8651 46.7704H30.0859C29.778 46.7704 29.5291 46.5211 29.5291 46.2136V39.5102C29.5291 39.2023 29.7784 38.9534 30.0859 38.9534H47.8651C48.173 38.9534 48.4219 39.2027 48.4219 39.5102V46.2136C48.4219 46.5211 48.173 46.7704 47.8651 46.7704ZM30.6434 45.6564H47.3086V40.067L30.6434 40.0666V45.6564Z" stroke="#863A20"/>
</svg>

