<svg width="112" height="42" viewBox="0 0 112 42" fill="none" xmlns="http://www.w3.org/2000/svg">
<path d="M21 35H3.5V31.5H13.5625C12.25 26.5825 8.4175 22.75 3.5 21.455C4.62 21.175 5.7925 21 7 21C14.735 21 21 27.265 21 35ZM38.5 21.455C37.38 21.175 36.2075 21 35 21C29.8725 21 25.375 23.765 22.96 27.8775C23.4675 29.0325 23.8875 30.24 24.1325 31.5C24.36 32.6375 24.5 33.81 24.5 35H38.5V31.5H28.42C29.75 26.5825 33.5825 22.75 38.5 21.455ZM27.37 19.25C28.735 15.6275 31.2725 12.565 34.5275 10.5C27.02 10.78 21 16.9225 21 24.5C22.6625 22.3125 24.85 20.51 27.37 19.25ZM19.985 15.4875C19.2603 13.5839 18.1536 11.8489 16.7331 10.3892C15.3125 8.92951 13.6082 7.7761 11.725 7C14.245 10.255 15.75 14.315 15.75 18.7425C15.75 19.11 15.6975 19.46 15.68 19.81C16.4325 20.23 17.1325 20.72 17.815 21.245C18.1894 19.2118 18.9243 17.262 19.985 15.4875Z" fill="#863A20"/>
<path d="M54.6939 34.2637C52.9712 34.2637 51.5914 33.7847 50.5543 32.8267C49.5171 31.8687 48.8668 30.4932 48.6031 28.7002L52.4395 28.1333C52.6153 29.1704 52.9009 29.9438 53.2964 30.4536C53.692 30.9634 54.1666 31.2183 54.7203 31.2183C55.3619 31.2183 55.8716 30.959 56.2496 30.4404C56.6275 29.9219 56.8165 29.1792 56.8165 28.2124V19.2607H52.8482V16.2153H60.6924V28.1201C60.6924 30.0361 60.1607 31.5391 59.0972 32.6289C58.0337 33.7188 56.566 34.2637 54.6939 34.2637ZM71.9112 34.2637C69.749 34.2637 68.1758 33.6748 67.1914 32.4971C66.2071 31.3193 65.7149 29.5 65.7149 27.0391V16.2153H69.604V26.9995C69.604 28.5376 69.7798 29.6274 70.1314 30.269C70.4917 30.9019 71.1201 31.2183 72.0166 31.2183C72.9307 31.2183 73.5943 30.8799 74.0073 30.2031C74.4204 29.5264 74.627 28.4146 74.627 26.8677V16.2153H78.5161V26.8413C78.5161 29.355 77.9712 31.2227 76.8814 32.4443C75.8003 33.6572 74.1436 34.2637 71.9112 34.2637ZM95.9179 24.9692C95.9179 27.8696 95.2412 30.1021 93.8877 31.6665C92.5342 33.2222 90.605 34 88.1001 34H82.5498V16.2153H87.3091C90.1919 16.2153 92.3452 16.9404 93.769 18.3906C95.2016 19.832 95.9179 22.0249 95.9179 24.9692ZM92.0024 24.9692C92.0024 22.9741 91.6245 21.5195 90.8686 20.6055C90.1216 19.6826 88.9131 19.2212 87.2431 19.2212H86.4389V30.9941H87.7837C90.5962 30.9941 92.0024 28.9858 92.0024 24.9692ZM99.5956 16.2153H111.672V19.2212H107.572V30.9941H111.672V34H99.5956V30.9941H103.696V19.2212H99.5956V16.2153Z" fill="#863A20"/>
</svg>
