<svg width="48" height="34" viewBox="0 0 48 34" fill="none" xmlns="http://www.w3.org/2000/svg">
<path d="M35.5661 0.138491C31.0268 0.263366 27.5083 1.49524 24.0827 2.68662C20.4191 3.95899 16.9614 5.1588 12.1706 5.20774C8.96944 5.25837 5.76319 4.70487 2.61262 3.61474L0.375 2.84187V31.6677L1.49887 32.0677C4.43344 33.1055 7.43381 33.7046 10.4207 33.8463C10.8949 33.8682 11.3589 33.8801 11.8146 33.8801C16.899 33.8801 20.7921 32.5301 24.567 31.2273C28.5461 29.8503 32.2991 28.5492 37.4207 28.7906C40.1354 28.93 42.8149 29.4667 45.3739 30.3836L47.625 31.1801V2.34237L46.5146 1.93737C43.6432 0.891623 40.6289 0.290691 37.5759 0.155366C36.9064 0.125643 36.236 0.120014 35.5661 0.138491ZM35.6573 3.48987C36.231 3.47299 36.8183 3.47299 37.4274 3.49662C38.0586 3.52362 38.6897 3.58099 39.3191 3.65524C39.5759 4.71406 40.2331 5.63214 41.1526 6.21651C42.0721 6.80089 43.1824 7.00607 44.25 6.78893V22.1486C43.6972 22.036 43.1274 22.0358 42.5745 22.1478C42.0216 22.2598 41.4969 22.4817 41.0314 22.8005C40.5659 23.1192 40.1693 23.5283 39.865 24.0033C39.5607 24.4783 39.355 25.0097 39.2601 25.5657C38.7011 25.5083 38.1406 25.4666 37.5793 25.4409C31.8165 25.1877 27.5674 26.6373 23.46 28.0616C19.4758 29.4419 15.7009 30.7464 10.5827 30.5034C9.94524 30.47 9.3092 30.4138 8.67581 30.3346C8.41688 29.2787 7.75954 28.3639 6.8414 27.7817C5.92326 27.1995 4.8155 26.995 3.75 27.2111V11.8514C4.30611 11.9646 4.87937 11.9641 5.43528 11.8499C5.99119 11.7358 6.51825 11.5103 6.98474 11.1871C7.45124 10.8639 7.84752 10.4497 8.14974 9.96934C8.45196 9.489 8.65387 8.95247 8.74331 8.39205C9.89925 8.51187 11.0552 8.58105 12.2078 8.56249C17.5487 8.50849 21.4316 7.1568 25.1897 5.85068C28.4989 4.69812 31.6528 3.61474 35.6573 3.48987ZM24 8.56249C20.2774 8.56249 17.25 12.3476 17.25 17C17.25 21.6524 20.2774 25.4375 24 25.4375C27.7226 25.4375 30.75 21.6524 30.75 17C30.75 12.3476 27.7226 8.56249 24 8.56249ZM24 11.9375C25.8293 11.9375 27.375 14.2561 27.375 17C27.375 19.7439 25.8293 22.0625 24 22.0625C22.1707 22.0625 20.625 19.7439 20.625 17C20.625 14.2561 22.1707 11.9375 24 11.9375ZM36.6562 11.9375C35.9849 11.9375 35.3411 12.2042 34.8664 12.6789C34.3917 13.1536 34.125 13.7974 34.125 14.4687C34.125 15.1401 34.3917 15.7839 34.8664 16.2586C35.3411 16.7333 35.9849 17 36.6562 17C37.3276 17 37.9714 16.7333 38.4461 16.2586C38.9208 15.7839 39.1875 15.1401 39.1875 14.4687C39.1875 13.7974 38.9208 13.1536 38.4461 12.6789C37.9714 12.2042 37.3276 11.9375 36.6562 11.9375ZM11.3438 17C10.6724 17 10.0286 17.2667 9.55389 17.7414C9.07918 18.2161 8.8125 18.8599 8.8125 19.5312C8.8125 20.2026 9.07918 20.8464 9.55389 21.3211C10.0286 21.7958 10.6724 22.0625 11.3438 22.0625C12.0151 22.0625 12.6589 21.7958 13.1336 21.3211C13.6083 20.8464 13.875 20.2026 13.875 19.5312C13.875 18.8599 13.6083 18.2161 13.1336 17.7414C12.6589 17.2667 12.0151 17 11.3438 17Z" fill="#863A20"/>
</svg>

