<svg width="46" height="46" viewBox="0 0 46 46" fill="none" xmlns="http://www.w3.org/2000/svg">
<path d="M4.14501 34.88C4.3658 35.435 4.79801 35.8795 5.34655 36.1158C5.8951 36.3521 6.51504 36.3608 7.07001 36.14C7.62497 35.9192 8.0695 35.487 8.3058 34.9385C8.54209 34.3899 8.5508 33.77 8.33001 33.215L5.81001 26.87L20.75 23.5625V34.25C20.75 34.8467 20.9871 35.419 21.409 35.841C21.831 36.2629 22.4033 36.5 23 36.5C23.5967 36.5 24.169 36.2629 24.591 35.841C25.013 35.419 25.25 34.8467 25.25 34.25V23.5625L40.19 26.87L37.67 33.215C37.5604 33.4898 37.5061 33.7834 37.5101 34.0792C37.5141 34.375 37.5764 34.6671 37.6935 34.9388C37.8105 35.2105 37.9799 35.4564 38.1921 35.6625C38.4043 35.8686 38.655 36.0309 38.93 36.14C39.195 36.2447 39.4775 36.2982 39.7625 36.2975C40.2131 36.2979 40.6535 36.1631 41.0266 35.9103C41.3997 35.6576 41.6883 35.2986 41.855 34.88L45.3425 26.0825C45.4622 25.7782 45.5142 25.4515 45.4947 25.1251C45.4753 24.7987 45.385 24.4804 45.23 24.1925C45.0797 23.9056 44.8691 23.6546 44.6129 23.4565C44.3566 23.2585 44.0605 23.1181 43.745 23.045L36.5 21.4475V11.75C36.5 11.1533 36.263 10.581 35.841 10.159C35.419 9.73705 34.8467 9.5 34.25 9.5H29.75V2.75C29.75 2.15326 29.513 1.58097 29.091 1.15901C28.669 0.737053 28.0967 0.5 27.5 0.5H18.5C17.9033 0.5 17.331 0.737053 16.909 1.15901C16.4871 1.58097 16.25 2.15326 16.25 2.75V9.5H11.75C11.1533 9.5 10.581 9.73705 10.159 10.159C9.73706 10.581 9.50001 11.1533 9.50001 11.75V21.4475L2.25501 23C1.93948 23.0731 1.64345 23.2135 1.38716 23.4115C1.13087 23.6096 0.920355 23.8606 0.770009 24.1475C0.61505 24.4354 0.524711 24.7537 0.505282 25.0801C0.485853 25.4065 0.537801 25.7332 0.657509 26.0375L4.14501 34.88ZM20.75 5H25.25V9.5H20.75V5ZM14 14H32V20.435L23.495 18.5H22.505L14 20.435V14ZM42.5975 39.38C41.8081 39.6219 41.0521 39.9621 40.3475 40.3925C39.6307 40.8117 38.8153 41.0326 37.985 41.0326C37.1547 41.0326 36.3393 40.8117 35.6225 40.3925C34.0639 39.5132 32.3046 39.0512 30.515 39.0512C28.7254 39.0512 26.9662 39.5132 25.4075 40.3925C24.6809 40.8068 23.8589 41.0247 23.0225 41.0247C22.1861 41.0247 21.3641 40.8068 20.6375 40.3925C19.0775 39.5174 17.3187 39.0578 15.53 39.0578C13.7413 39.0578 11.9826 39.5174 10.4225 40.3925C9.70573 40.8117 8.89035 41.0326 8.06001 41.0326C7.22967 41.0326 6.41428 40.8117 5.69751 40.3925C4.99289 39.9621 4.23696 39.6219 3.44751 39.38C3.14813 39.2736 2.8296 39.2317 2.51289 39.2573C2.19618 39.2828 1.88847 39.3751 1.61001 39.5282C1.33156 39.6812 1.08868 39.8915 0.897358 40.1452C0.706037 40.3989 0.570616 40.6902 0.500009 41C0.332037 41.5699 0.396267 42.183 0.678687 42.7057C0.961106 43.2284 1.43879 43.6182 2.00751 43.79C2.46058 43.9128 2.89282 44.1023 3.29001 44.3525C4.6551 45.1535 6.20729 45.5804 7.79001 45.59C9.43386 45.5903 11.0485 45.1556 12.47 44.33C13.352 43.8435 14.3428 43.5883 15.35 43.5883C16.3572 43.5883 17.3481 43.8435 18.23 44.33C19.6414 45.1371 21.2391 45.5616 22.865 45.5616C24.4909 45.5616 26.0886 45.1371 27.5 44.33C28.382 43.8435 29.3728 43.5883 30.38 43.5883C31.3872 43.5883 32.3781 43.8435 33.26 44.33C34.6546 45.1623 36.2484 45.6018 37.8725 45.6018C39.4966 45.6018 41.0904 45.1623 42.485 44.33C42.8822 44.0798 43.3144 43.8903 43.7675 43.7675C44.0669 43.7069 44.3509 43.586 44.6021 43.4121C44.8533 43.2382 45.0664 43.015 45.2285 42.7561C45.3906 42.4971 45.4983 42.2079 45.5449 41.906C45.5916 41.6041 45.5763 41.2958 45.5 41C45.4285 40.6955 45.2943 40.4093 45.106 40.1595C44.9176 39.9098 44.6793 39.7021 44.4062 39.5497C44.133 39.3972 43.8311 39.3034 43.5197 39.2742C43.2083 39.245 42.8942 39.281 42.5975 39.38Z" fill="#863A20"/>
</svg>

